<?xml version="1.0" encoding="UTF-8" standalone="no"?>
<!-- Generator: Adobe Illustrator 26.5.0, SVG Export Plug-In . SVG Version: 6.00 Build 0)  -->

<svg
   version="1.1"
   id="Layer_1"
   x="0px"
   y="0px"
   viewBox="0 0 978.5 837"
   style="enable-background:new 0 0 978.5 837;"
   xml:space="preserve"
   sodipodi:docname="base.svg"
   inkscape:version="1.2.2 (b0a8486541, 2022-12-01)"
   xmlns:inkscape="http://www.inkscape.org/namespaces/inkscape"
   xmlns:sodipodi="http://sodipodi.sourceforge.net/DTD/sodipodi-0.dtd"
   xmlns="http://www.w3.org/2000/svg"
   xmlns:svg="http://www.w3.org/2000/svg"><defs
   id="defs1082" /><sodipodi:namedview
   id="namedview1080"
   pagecolor="#ffffff"
   bordercolor="#000000"
   borderopacity="0.25"
   inkscape:showpageshadow="2"
   inkscape:pageopacity="0.0"
   inkscape:pagecheckerboard="0"
   inkscape:deskcolor="#d1d1d1"
   showgrid="false"
   inkscape:zoom="0.479483"
   inkscape:cx="338.9067"
   inkscape:cy="435.88615"
   inkscape:window-width="1340"
   inkscape:window-height="687"
   inkscape:window-x="10"
   inkscape:window-y="65"
   inkscape:window-maximized="1"
   inkscape:current-layer="Layer_1" />
<style
   type="text/css"
   id="style686">
	.st0{fill:#f5e0dc;}
	.st1{fill:#b4befe;}
	.st2{opacity:0.83;}
	.st3{opacity:0.11;}
	.st4{opacity:7.000000e-02;}
	.st5{fill:none;stroke:#11111b;stroke-miterlimit:10;}
	.st6{fill:#11111b;}
	.st7{fill:#1e1e2e;}
	.st8{fill:#181825;}
	.st9{fill:#cdd6f4;}
	.st10{opacity:0.1;enable-background:new    ;}
	.st11{opacity:3.000000e-02;fill:none;stroke:#FFFFFF;stroke-width:2;stroke-miterlimit:10;enable-background:new    ;}
	.st12{opacity:3.000000e-02;fill:#FFFFFF;stroke:#11111b;stroke-width:2;stroke-miterlimit:10;enable-background:new    ;}
	.st13{opacity:5.000000e-02;}
	.st14{fill:#FFFFFF;}
	.st15{fill:#11111b;}
	.st16{fill:#CDCDCD;}
	.st17{opacity:0.13;}
	.st18{opacity:8.000000e-02;enable-background:new    ;}
	.st19{fill:#f9e2af;}
	.st20{opacity:0.65;}
	.st21{opacity:8.000000e-02;}
	.st22{opacity:8.000000e-02;stroke:#11111b;stroke-miterlimit:10;enable-background:new    ;}
	.st23{opacity:0.65;enable-background:new    ;}
	.st24{fill:#E7E7E7;}
	.st25{enable-background:new    ;}
	.st26{fill:#f2cdcd;}
	.st27{fill:#a6e3a1;}
	.st28{fill:#f38ba8;}
</style>
<g
   id="Base">
	<path
   id="Right_Trigger"
   class="st0"
   d="M876.8,199.8c0,0-14.2-40.5-47-58.5s-66.7-7.6-84.8,3.7L876.8,199.8z" />
	<path
   class="st1"
   d="M736,142.8c0,0,2-2.8,4.3-3.4s32.9-5.3,79.2,12.1s78.6,45.6,74,54.6c-2.3,3.5-3.4,5-3.4,5L736,142.8z"
   id="path689" />
	<g
   id="Left_Trigger">
		<path
   id="Left_Trigger-2"
   class="st0"
   d="M101.7,199.8c0,0,14.2-40.5,47-58.5s66.7-7.6,84.8,3.7L101.7,199.8z" />
		<g
   class="st2"
   id="g700">
			<g
   class="st3"
   id="g694">
				<path
   d="M161.4,150.8h5.2v19.7h7.6v4.5h-12.8V150.8z"
   id="path692" />
			</g>
			<g
   class="st4"
   id="g698">
				<path
   class="st5"
   d="M161.4,150.8h5.2v19.7h7.6v4.5h-12.8V150.8z"
   id="path696" />
			</g>
		</g>
	</g>
	<path
   class="st6"
   d="M357.5,406.3l-3.7,38l28-16.3c0,0,40.9-11,107.5-11s107.4,11,107.4,11l13.8,4l9-25.7H357.5z"
   id="path703" />
	<path
   class="st7"
   d="M960.8,362.3c-8-17.5-126.8-181.5-126.8-181.5S674,100,489.3,100s-344.8,80.8-344.8,80.8   S25.8,344.8,17.8,362.3S0,647.5,0,647.5s4.5,73.3,9,100.8s20.5,52,20.5,52s26.5,51.8,71,32.3s56-111.5,56-111.5s12.5-84,18-115.5   s14-45.5,14-45.5l188.2-136.3c26.2-12,112.6-14,112.6-14s86.4,2,112.6,14L790,560c0,0,8.5,14,14,45.5S822,721,822,721   s11.5,92,56,111.5s71-32.3,71-32.3s16-24.5,20.5-52s9-100.8,9-100.8S968.8,379.8,960.8,362.3z"
   id="path705" />
	<g
   id="g715">
		<g
   id="g711">
			<path
   class="st8"
   d="M521.9,541.7c4.1-36.1,35.7-64.3,51.7-78.8c32.2-29.1,28.6-62.4,27-111.6c-2.1-67.7,32.4-107.9,35.6-112.2     c3.6-4.8,107-120.3,239-38.9c124.6,89.8,63,224.7,60.4,230.1c-1.2,2.4-25,54.8-97.7,83c-53,20.6-70.9,61.6-76.7,82.2     c-0.6,4.2-1.5,8.4-2.6,12.5l0,0c-5.8,20.4-20,43.1-51.6,60.5c-74.7,41-140.6-8.7-140.6-8.7S512.8,623.3,521.9,541.7z"
   id="path707" />
			<path
   class="st8"
   d="M529.9,548.8c4.1-35.8,35.7-63.8,51.7-78.2c32.2-28.8,28.6-61.9,27-110.8c-2.1-67.1,32.4-107.1,35.6-111.3     c3.6-4.8,107-119.4,239-38.5c124.6,89.1,63,222.9,60.4,228.3c-1.2,2.4-25,54.3-97.7,82.3c-53,20.4-70.9,61.1-76.7,81.6     c-0.6,4.2-1.5,8.3-2.6,12.4l0,0c-5.8,20.2-20,42.8-51.6,60c-74.7,40.7-140.6-8.6-140.6-8.6S520.8,629.8,529.9,548.8z"
   id="path709" />
		</g>
		<path
   class="st7"
   d="M528.9,541.8c4.1-35.8,35.7-63.8,51.7-78.2c32.2-28.8,28.6-61.9,27-110.8c-2.1-67.1,32.4-107.1,35.6-111.3    c3.6-4.8,107-119.4,239-38.5c124.6,89.1,63,222.9,60.4,228.3c-1.2,2.4-25,54.3-97.7,82.3c-53,20.4-70.9,61.1-76.7,81.6    c-0.6,4.2-1.5,8.3-2.6,12.4l0,0c-5.8,20.2-20,42.8-51.6,60c-74.7,40.7-140.6-8.6-140.6-8.6S519.8,622.8,528.9,541.8z"
   id="path713" />
	</g>
	<g
   id="g725">
		<g
   id="g721">
			<path
   class="st8"
   d="M456.6,541.7c-4.1-36.1-35.7-64.3-51.7-78.8c-32.2-29.1-28.6-62.4-27-111.6c2.1-67.7-32.4-107.9-35.6-112.2     c-3.6-4.8-107-120.3-239-38.9c-124.6,89.8-63,224.7-60.4,230.1c1.2,2.4,25,54.8,97.7,83c53,20.6,70.9,61.6,76.7,82.2     c0.6,4.2,1.5,8.4,2.6,12.5l0,0c5.8,20.4,20,43.1,51.6,60.5c74.7,41,140.6-8.7,140.6-8.7S465.7,623.3,456.6,541.7z"
   id="path717" />
			<path
   class="st8"
   d="M448.6,548.8c-4.1-35.8-35.7-63.8-51.7-78.2c-32.2-28.8-28.6-61.9-27-110.8c2.1-67.1-32.4-107.1-35.6-111.3     c-3.6-4.8-107-119.4-239-38.5c-124.6,89.1-63,222.9-60.4,228.3c1.2,2.4,25,54.3,97.7,82.3c53,20.4,70.9,61.1,76.7,81.6     c0.6,4.2,1.5,8.3,2.6,12.4l0,0c5.8,20.2,20,42.8,51.6,60c74.7,40.7,140.6-8.6,140.6-8.6S457.7,629.8,448.6,548.8z"
   id="path719" />
		</g>
		<path
   class="st7"
   d="M449.6,541.8c-4.1-35.8-35.7-63.8-51.7-78.2c-32.2-28.8-28.6-61.9-27-110.8c2.1-67.1-32.4-107.1-35.6-111.3    c-3.6-4.8-107-119.4-239-38.5c-124.6,89.1-63,222.9-60.4,228.3c1.2,2.4,25,54.3,97.7,82.3c53,20.4,70.9,61.1,76.7,81.6    c0.6,4.2,1.5,8.3,2.6,12.4l0,0c5.8,20.2,20,42.8,51.6,60c74.7,40.7,140.6-8.6,140.6-8.6S458.7,622.8,449.6,541.8z"
   id="path723" />
	</g>
	<g
   id="g759">
		<g
   id="GAMECUBE">
			<path
   class="st9"
   d="M400.1,180.8v5.3h-21.7v13.4h15.8v-3.7H385v-5.6h15.4v10.2c-0.1,1.7-3.5,5.1-5.4,5.1h-17.7     c-2.5,0-5.9-3.4-5.9-5.1v-14.8c0-2.9,1.9-4.8,4.3-4.8L400.1,180.8L400.1,180.8z"
   id="path727" />
			<polygon
   class="st9"
   points="416.9,199.3 416.9,205.1 399,205.1 413.5,180.5 419.3,180.5 430.4,199.3 430.4,180.5 436.8,180.5      446.7,197.4 456.7,180.5 462.9,180.5 462.9,205.1 456.7,205.1 456.6,192.6 449.4,205.1 444,205.1 436.8,192.6 436.8,205.1      426.1,205.1 416.2,188.2 409.7,199.3    "
   id="polygon729" />
			<polygon
   class="st9"
   points="465.3,180.5 465.3,205.1 490.5,205.1 490.5,199.3 472.1,199.3 472.1,195.1 482.8,195.1 482.8,189.7      472.1,189.7 472.1,185.8 490.5,185.8 490.5,180.5    "
   id="polygon731" />
			<path
   class="st9"
   d="M515.8,190.2h6.3v-5.3c0,0,0.7-4.4-3.9-4.4h-19.9c-2,0-2.9,0.9-2.9,2.4v17.4c0,2.4,2.3,4.8,3.8,4.8h19.4     c0,0,3.4,0.5,3.4-3.3v-7.2h-6.3v4.8h-14.1v-13.1h13.6v3.9L515.8,190.2L515.8,190.2z"
   id="path733" />
			<path
   class="st9"
   d="M524.5,180.5h6.8v18.9h14v-18.9h6.8v20.4c0,0,0.4,4.4-5.8,4.4h-16.5c0,0-5.3,0.5-5.3-4.4V180.5z"
   id="path735" />
			<path
   class="st9"
   d="M581.2,195v6.3c0,2.2-1.6,3.9-6.8,3.9h-19.9v-24.7h23.3c1.7-0.2,3.2,1.1,3.4,2.8c0,0.2,0,0.4,0,0.6v6.8     c0,0.5-0.7,1.5-2.4,1.5v0.5C580.1,192.7,581.1,193.7,581.2,195z M574.9,198.9V196c0-0.8-0.2-1-0.5-1h-13.1v4.4h12.6     C574.6,199.4,574.9,199.1,574.9,198.9z M574.9,189.2v-2.9c0-0.8-0.2-1-0.5-1h-13.1v4.4h12.6C574.6,189.7,574.9,189.4,574.9,189.2     z"
   id="path737" />
			<polygon
   class="st9"
   points="583.6,205.2 608.8,205.2 608.8,199.3 589.9,199.3 589.9,195 600.6,195 600.6,189.7 589.9,189.7      589.9,185.8 608.3,185.8 608.3,180.4 583.6,180.4    "
   id="polygon739" />
		</g>
		<g
   id="NINTENDO">
			<polygon
   class="st9"
   points="376.7,155.3 376.7,173.6 380.1,173.6 380.1,160.1 387.4,173.6 391.2,173.6 391.2,155.3 387.3,155.3      387.3,166.3 381.5,155.3    "
   id="polygon742" />
			<polygon
   class="st9"
   points="434.8,155.3 434.8,173.6 438.2,173.6 438.2,160.1 445.5,173.6 449.4,173.6 449.4,155.3 445.5,155.3      445.5,166.3 439.7,155.3    "
   id="polygon744" />
			<rect
   x="411.1"
   y="155.3"
   class="st9"
   width="3.9"
   height="18.4"
   id="rect746" />
			<polygon
   class="st9"
   points="465.3,155.3 465.3,158.2 471.2,158.2 471.2,173.6 475.1,173.6 475.1,158.2 480.9,158.2 480.9,155.3         "
   id="polygon748" />
			<path
   class="st9"
   d="M498.8,162v0.5h10.7v2.9h-10.7v3.9c0.2,0.6,0.8,1.2,1.4,1.4h9.2v2.9h-10.7c-1.9,0-3.4-1.5-3.4-3.4v-11.6     c-0.1-1.7,1.1-3.3,2.9-3.4c0.2,0,0.3,0,0.5,0h10.7v2.9h-8.7c-0.9,0.1-1.6,0.7-1.9,1.5"
   id="path750" />
			<polygon
   class="st9"
   points="526.9,173.7 530.3,173.7 530.3,160.2 537.6,173.7 541,173.7 541,155.3 537.6,155.3 537.6,166.3      531.3,155.3 526.9,155.3    "
   id="polygon752" />
			<path
   class="st9"
   d="M573,158.6v11.7c0,0.9-2.5,3.4-3.9,3.4h-10.6v-18.4h9.7C571.1,155.3,573,157.2,573,158.6z M569.6,169.3v-9.7     c-0.4-0.8-1.1-1.3-1.9-1.5h-5.8v13.1h5.8C568.2,171.2,569.6,169.9,569.6,169.3z"
   id="path754" />
			<path
   class="st9"
   d="M604.5,159.6v9.7c0,2.8-2.1,4.9-5.3,4.9h-4.8c-3.1,0-5.2-1.9-5.3-4.6v-10.5c0-1.9,2-3.8,4.3-3.8h6.8     C602.9,155.2,604.5,156.8,604.5,159.6z M600.6,168.8v-8.7c-0.2-1-1-1.7-1.9-2h-3.8c-1,0.1-1.9,0.9-2,1.9v8.8     c0,1.4,0.5,1.9,1.5,1.9h4.4C599.8,170.6,600.6,169.8,600.6,168.8z"
   id="path756" />
		</g>
	</g>
	<g
   id="g765">
		<circle
   class="st10"
   cx="327.9"
   cy="561.9"
   r="81.3"
   id="circle761" />
		<circle
   class="st11"
   cx="327.9"
   cy="561.9"
   r="81.3"
   id="circle763" />
	</g>
	<circle
   class="st12"
   cx="788.2"
   cy="344.7"
   r="109.7"
   id="circle767" />
	<path
   d="M788.2,285.7c-32.6,0-59,26.4-59,59s26.4,59,59,59s59-26.4,59-59l0,0C847.1,312.1,820.8,285.8,788.2,285.7z"
   id="path769" />
	<path
   d="M769.9,206.6L769.9,206.6c-10.1,0-18.6,1.6-22.8,3c-10,3.3-31.8,15.6-39.3,30.7c-2.9,5.9-3.5,11.6-1.7,17.1   c5.7,17,19.7,18.9,25.4,18.9c1.2,0.1,2.4,0,3.6-0.3h0.2c5.5-1.7,10.8-4.1,15.8-7c3.4-2.1,7.1-3.7,10.9-4.8   c9.5-2.7,23.2-2.8,24.7-2.8h0.4c0.5-0.1,12.7-1.4,19.7-10.6c4.1-5.4,5.5-12.4,4.1-20.7s-6.7-14.7-15.5-18.7   C787,207.4,776.9,206.6,769.9,206.6L769.9,206.6z"
   id="path771" />
	<path
   d="M886.8,269.5c-1.6,0-3.2,0.2-4.8,0.6c-22.7,5.6-21,27.1-20.9,27.4v0.2c1.2,5.6,3.1,11.1,5.7,16.3c1.8,3.6,3.2,7.4,3.9,11.3   c2,10.3,0.7,24.9,0.7,25.1v0.2c0,0.3,0.8,26.4,25.9,26.4c1.1,0,2.2-0.1,3.4-0.1c7.2-0.6,13.1-4.1,17.7-10.3   c10.6-14.6,10.3-41.2,7.9-51.6C923,301.6,907.1,269.5,886.8,269.5L886.8,269.5z"
   id="path773" />
	<path
   d="M676.5,364.2c-20.7,0-37.5,16.8-37.5,37.5s16.8,37.5,37.5,37.5s37.5-16.8,37.5-37.5l0,0C714,381,697.2,364.2,676.5,364.2z"
   id="path775" />
	<g
   class="st13"
   id="g781">
		<path
   class="st14"
   d="M189,453.1c-62.4,0-113-50.6-113-113s50.6-113,113-113s113,50.6,113,113C301.9,402.5,251.4,453,189,453.1z"
   id="path777" />
		<path
   d="M189,228.1c61.9,0,112,50.2,112,112c0,61.9-50.2,112-112,112s-112-50.2-112-112c0-29.7,11.8-58.2,32.8-79.2    C130.8,239.8,159.3,228,189,228.1 M189,226.1c-63,0-114,51-114,114s51,114,114,114s114-51,114-114l0,0    C303,277.1,252,226.1,189,226.1z"
   id="path779" />
	</g>
	<g
   id="Stick_BG">
		<path
   class="st15"
   d="M184.5,427.7L128.6,401c-0.9-0.4-1.5-1.1-1.8-2l-21.4-58.7c-0.3-0.9-0.3-1.8,0.1-2.7l25.6-56.3    c0.4-0.9,1.2-1.6,2.1-1.9l57.6-21c0.9-0.3,1.9-0.3,2.8,0.1l55.9,26.7c0.9,0.4,1.5,1.1,1.8,2l21.4,58.7c0.3,0.9,0.3,1.8-0.1,2.7    L246.9,405c-0.4,0.9-1.2,1.6-2.1,1.9l-57.6,21C186.3,428.2,185.3,428.1,184.5,427.7z"
   id="path783" />
		<path
   class="st16"
   d="M184.7,423l-52.6-25.1c-0.9-0.4-1.5-1.1-1.8-2l-20.1-55.3c-0.3-0.9-0.3-1.8,0.1-2.7l24.1-53    c0.4-0.9,1.2-1.6,2.1-1.9l54.2-19.7c0.9-0.3,1.9-0.3,2.8,0.1l52.6,25.1c0.9,0.4,1.5,1.1,1.8,2l20.1,55.3c0.3,0.9,0.3,1.8-0.1,2.7    l-24.1,53c-0.4,0.9-1.2,1.6-2.1,1.9l-54.2,19.7C186.6,423.4,185.6,423.4,184.7,423z"
   id="path785" />
		<g
   class="st17"
   id="g795">
			<path
   d="M219.4,275.7l1.2,0.6c17.1,8.2,30.3,22.7,36.8,40.5l-9.6-26.4c-0.3-0.9-1-1.6-1.8-2l-52.6-25.1c-0.9-0.4-1.9-0.5-2.8-0.1     l-27.1,9.9C181.7,266.3,201.9,267.3,219.4,275.7z"
   id="path787" />
			<path
   d="M163.5,273l-27.1,9.9c-0.9,0.3-1.7,1-2.1,1.9L122.4,311C130.4,293.3,145.2,279.6,163.5,273z"
   id="path789" />
			<path
   d="M158.6,410.5l-1.2-0.6c-17.1-8.2-30.3-22.7-36.8-40.5l-0.9-2.5c-6.5-17.8-5.7-37.4,2.1-54.7l0,0l-11.7,25.6     c-0.4,0.9-0.4,1.8-0.1,2.7l20.1,55.3c0.3,0.9,1,1.6,1.8,2l52.6,25.1c0.9,0.4,1.9,0.5,2.8,0.1l27.1-9.9     C196.2,419.9,176.1,418.9,158.6,410.5z"
   id="path791" />
			<path
   d="M268,345.7l-10.4-28.6l0.8,2.2c6.5,17.8,5.7,37.4-2.1,54.7l-0.5,1.2c-8,17.7-22.8,31.4-41.1,38l0,0l27.1-9.9     c0.9-0.3,1.7-1,2.1-1.9l24.1-53C268.2,347.5,268.2,346.6,268,345.7z"
   id="path793" />
		</g>
	</g>
	<g
   id="C_Stick_BG">
		<path
   class="st18"
   d="M645.8,649.2L590,622.5c-0.9-0.4-1.5-1.1-1.8-2l-21.4-58.7c-0.3-0.9-0.3-1.8,0.1-2.7l25.6-56.3    c0.4-0.9,1.2-1.6,2.1-1.9l57.6-21c0.9-0.3,1.9-0.3,2.8,0.1l55.9,26.7c0.9,0.4,1.5,1.1,1.8,2l21.4,58.7c0.3,0.9,0.3,1.8-0.1,2.7    l-25.6,56.3c-0.4,0.9-1.2,1.6-2.1,1.9l-57.6,21C647.8,649.6,646.7,649.6,645.8,649.2z"
   id="path798" />
		<path
   class="st19"
   d="M646,644.4l-52.6-25.1c-0.9-0.4-1.5-1.1-1.8-2L571.4,562c-0.3-0.9-0.3-1.8,0.1-2.7l24.1-53    c0.4-0.9,1.2-1.6,2.1-1.9l54.2-19.7c0.9-0.3,1.9-0.3,2.8,0.1l52.6,25.1c0.9,0.4,1.5,1.1,1.8,2l20.1,55.3c0.3,0.9,0.3,1.8-0.1,2.7    l-24.1,53c-0.4,0.9-1.2,1.6-2.1,1.9l-54.2,19.7C647.8,644.9,646.8,644.8,646,644.4z"
   id="path800" />
		<g
   class="st17"
   id="g810">
			<path
   d="M680.8,497.1l1.2,0.6c17.1,8.2,30.3,22.7,36.8,40.5l-9.6-26.4c-0.3-0.9-1-1.6-1.8-2l-52.6-25.1c-0.9-0.4-1.9-0.5-2.8-0.1     l-27.1,9.9C643.1,487.8,663.3,488.7,680.8,497.1z"
   id="path802" />
			<path
   d="M624.8,494.4l-27.1,9.9c-0.9,0.3-1.7,1-2.1,1.9l-11.9,26.2C591.8,514.8,606.6,501.1,624.8,494.4z"
   id="path804" />
			<path
   d="M620,632l-1.2-0.6c-17.1-8.2-30.3-22.7-36.8-40.5l-0.9-2.5c-6.5-17.8-5.7-37.4,2.1-54.7l0,0l-11.7,25.6     c-0.4,0.9-0.4,1.8-0.1,2.7l20.1,55.3c0.3,0.9,1,1.6,1.8,2l52.6,25.1c0.9,0.4,1.9,0.5,2.8,0.1l27.1-9.9     C657.6,641.3,637.5,640.3,620,632z"
   id="path806" />
			<path
   d="M729.3,567.1l-10.4-28.6l0.8,2.2c6.5,17.8,5.7,37.4-2.1,54.7l-0.5,1.2c-8,17.7-22.8,31.4-41.1,38l0,0l27.1-9.9     c0.9-0.3,1.7-1,2.1-1.9l24.1-53C729.6,568.9,729.6,568,729.3,567.1z"
   id="path808" />
		</g>
	</g>
	<g
   id="g862">
		<g
   id="D-Pad_BG"
   class="st20">
			<path
   d="M312.4,628.8c-3.9,0-7.1-3.2-7.1-7.1v-35.1c0-1.1-0.9-2-2-2h-35.1c-3.9,0-7.1-3.2-7.1-7.1v-31c0-3.9,3.2-7.1,7.1-7.1     h35.1c1.1,0,2-0.9,2-2v-35.1c0-3.9,3.2-7.1,7.1-7.1h31c3.9,0,7.1,3.2,7.1,7.1v35.1c0,1.1,0.9,2,2,2h35.1c3.9,0,7.1,3.2,7.1,7.1     v31c0,3.9-3.2,7.1-7.1,7.1h-35.1c-1.1,0-2,0.9-2,2v35.1c0,3.9-3.2,7.1-7.1,7.1H312.4z"
   id="path813" />
			<path
   d="M343.4,496.6c3.1,0,5.6,2.5,5.6,5.6l0,0v35.1c0,1.9,1.5,3.5,3.5,3.5l0,0h35.1c3.1,0,5.6,2.5,5.6,5.6l0,0v31     c0,3.1-2.5,5.6-5.6,5.6l0,0h-35.1c-1.9,0-3.5,1.5-3.5,3.5l0,0v35.1c0,3.1-2.5,5.6-5.6,5.6l0,0h-31c-3.1,0-5.6-2.5-5.6-5.6l0,0     v-35.1c0-1.9-1.5-3.5-3.5-3.5l0,0h-35.1c-3.1,0-5.6-2.5-5.6-5.6l0,0v-31c0-3.1,2.5-5.6,5.6-5.6l0,0h35.1c1.9,0,3.5-1.5,3.5-3.5     l0,0v-35.1c0-3.1,2.5-5.6,5.6-5.6l0,0L343.4,496.6 M343.4,493.6h-31c-4.7,0-8.6,3.9-8.6,8.6l0,0v35.1c0,0.3-0.2,0.5-0.5,0.5     h-35.1c-4.7,0-8.6,3.9-8.6,8.6v31c0,4.7,3.9,8.6,8.6,8.6h35.1c0.3,0,0.5,0.2,0.5,0.5v35.1c0,4.7,3.9,8.6,8.6,8.6h31     c4.7,0,8.6-3.9,8.6-8.6v-35.1c0-0.3,0.2-0.5,0.5-0.5h35.1c4.7,0,8.6-3.9,8.6-8.6v-31c0-4.7-3.9-8.6-8.6-8.6h-35.1     c-0.3,0-0.5-0.2-0.5-0.5v-35.1C352,497.5,348.1,493.6,343.4,493.6L343.4,493.6L343.4,493.6z"
   id="path815" />
		</g>
		<path
   class="st0"
   d="M387.6,540.8h-35.1c-1.9,0-3.5-1.5-3.5-3.5l0,0v-35.1c0-3.1-2.5-5.6-5.6-5.6l0,0h-31c-3.1,0-5.6,2.5-5.6,5.6    l0,0v35.1c0,1.9-1.5,3.5-3.5,3.5l0,0h-35.1c-3.1,0-5.6,2.5-5.6,5.6l0,0v31c0,3.1,2.5,5.6,5.6,5.6l0,0h35.1c1.9,0,3.5,1.5,3.5,3.5    l0,0v35.1c0,3.1,2.5,5.6,5.6,5.6l0,0h31c3.1,0,5.6-2.5,5.6-5.6l0,0v-35.1c0-1.9,1.5-3.5,3.5-3.5l0,0h35.1c3.1,0,5.6-2.5,5.6-5.6    l0,0v-31C393.2,543.3,390.7,540.8,387.6,540.8L387.6,540.8z"
   id="path818" />
		<g
   class="st21"
   id="g824">
			<path
   d="M293.4,572.1c-0.5-0.1-0.9-0.2-1.3-0.4c-3-1.5-16.1-8.2-16.2-8.3c-0.6-0.2-1.6-0.9-1.7-1.5s1.1-1.3,1.6-1.5     c0.2-0.1,13.3-6.9,16.2-8.3c0.4-0.2,0.8-0.3,1.3-0.4c0.3,0,0.4,0.1,0.4,0.2c0.2,0.3,0.2,0.6,0.2,0.9v18.3c0,0.3,0,0.6-0.2,0.9     C293.8,572,293.6,572.1,293.4,572.1z"
   id="path820" />
			<path
   d="M293.4,552.2L293.4,552.2c0.1,0.1,0.2,0.3,0.1,0.5v19.1h-0.1c-0.4,0-0.8-0.1-1.1-0.3c-3-1.4-16.1-8.2-16.2-8.3l0,0     c-0.7-0.3-1.3-0.8-1.3-1s0.6-0.8,1.3-1.1l0,0c0.1-0.1,13.2-6.9,16.2-8.3C292.9,552.2,293.2,552.2,293.4,552.2 M293.4,551.2     c-0.5,0-1,0.2-1.5,0.4c-3,1.5-16.2,8.3-16.2,8.3s-1.9,0.8-1.9,2s1.9,2,1.9,2s13.2,6.8,16.2,8.3c0.5,0.2,1,0.4,1.5,0.4     c1.3,0,1.1-1.6,1.1-1.6v-18.2C294.5,552.8,294.7,551.2,293.4,551.2L293.4,551.2z"
   id="path822" />
		</g>
		<g
   class="st21"
   id="g830">
			<path
   d="M337.2,528h-18.7c-0.3,0-0.6-0.1-0.8-0.3c-0.2-0.3-0.1-0.9,0.3-1.7c1.5-3,8.2-16.1,8.3-16.2c0.2-0.6,0.9-1.7,1.5-1.7     s1.3,1.1,1.5,1.6c0.1,0.2,6.9,13.3,8.3,16.2c0.4,0.8,0.5,1.4,0.3,1.7S337.4,528,337.2,528z"
   id="path826" />
			<path
   d="M327.9,508.7c0.2,0,0.7,0.6,1,1.3l0,0c0.1,0.1,6.9,13.2,8.3,16.2c0.4,0.9,0.3,1.2,0.4,1.2c-0.1,0.1-0.3,0.1-0.4,0.1     h-19.1c0,0-0.1-0.3,0.3-1.2c1.4-3,8.2-16.1,8.3-16.2l0,0C327,509.5,327.4,509.1,327.9,508.7 M327.9,507.7c-1.2,0-2,1.9-2,1.9     s-6.8,13.2-8.3,16.2c-1.2,2.5,0.3,2.7,0.9,2.7h18.6c0.6,0,2.1-0.2,0.9-2.7c-1.5-3-8.3-16.2-8.3-16.2S329,507.7,327.9,507.7     L327.9,507.7z"
   id="path828" />
		</g>
		<g
   class="st21"
   id="g836">
			<path
   d="M362.4,572.1c-0.3,0-0.4-0.1-0.4-0.2c-0.2-0.3-0.2-0.6-0.2-0.9v-18.3c0-0.3,0-0.6,0.2-0.9c0.1-0.1,0.2-0.2,0.4-0.2     c0.5,0.1,0.9,0.2,1.3,0.4c3,1.5,16.1,8.2,16.2,8.3c0.6,0.2,1.7,0.9,1.7,1.5s-1.1,1.3-1.6,1.5c-0.2,0.1-13.3,6.9-16.2,8.3     C363.4,571.9,362.9,572.1,362.4,572.1z"
   id="path832" />
			<path
   d="M362.4,552.2c0.4,0,0.8,0.1,1.1,0.3c3,1.4,16.1,8.2,16.2,8.3l0,0c0.7,0.3,1.3,0.8,1.3,1s-0.6,0.8-1.3,1.1l0,0     c-0.1,0.1-13.2,6.9-16.2,8.3c-0.3,0.2-0.7,0.3-1.1,0.3h-0.1c0-0.2-0.1-0.3-0.1-0.5v-18.4C362.2,552.4,362.3,552.3,362.4,552.2     L362.4,552.2 M362.4,551.2c-1.3,0-1.1,1.6-1.1,1.6V571c0,0-0.2,1.6,1.1,1.6c0.5,0,1-0.2,1.5-0.4c3-1.5,16.2-8.3,16.2-8.3     s1.9-0.8,1.9-2s-1.9-2-1.9-2s-13.2-6.8-16.2-8.3C363.4,551.4,362.9,551.2,362.4,551.2z"
   id="path834" />
		</g>
		<g
   class="st21"
   id="g842">
			<path
   d="M327.9,615.6c-0.6,0-1.3-1.1-1.5-1.6c-0.1-0.2-6.9-13.3-8.3-16.2c-0.4-0.8-0.5-1.4-0.3-1.7c0.2-0.2,0.5-0.3,0.8-0.3h18.7     c0.3,0,0.6,0.1,0.8,0.3c0.2,0.3,0.1,0.9-0.3,1.7c-1.5,3-8.2,16.1-8.3,16.2C329.2,614.5,328.5,615.6,327.9,615.6z"
   id="path838" />
			<path
   d="M318.5,596.3h19.2c0,0,0.1,0.3-0.3,1.2c-1.4,3-8.2,16.1-8.3,16.2l0,0c-0.3,0.7-0.8,1.3-1,1.3s-0.8-0.6-1.1-1.3l0,0     c-0.1-0.1-6.9-13.2-8.3-16.2c-0.4-0.9-0.3-1.2-0.4-1.2H318.5 M337.2,595.3h-18.6c-0.6,0-2.1,0.2-0.9,2.7c1.5,3,8.3,16.2,8.3,16.2     s0.8,1.9,2,1.9s2-1.9,2-1.9s6.8-13.2,8.3-16.2C339.3,595.5,337.8,595.3,337.2,595.3L337.2,595.3z"
   id="path840" />
		</g>
		<g
   class="st21"
   id="g846">
			<path
   d="M293.4,551.9c0.1,0,0.2,0,0.3,0.1c0.1,0.2,0.2,0.5,0.1,0.7l0,0v18.2l0,0c0,0.2,0,0.6-0.1,0.7c-0.1,0.1-0.2,0.1-0.3,0.1     c-0.4-0.1-0.8-0.2-1.2-0.4c-3-1.4-16.1-8.2-16.2-8.3l0,0c-0.6-0.3-1.5-0.9-1.5-1.3s0.9-1.1,1.5-1.3l0,0     c0.1-0.1,13.2-6.9,16.2-8.3C292.8,552,293.2,551.9,293.4,551.9 M293.4,551.2c-0.5,0-1,0.2-1.5,0.4c-3,1.5-16.2,8.3-16.2,8.3     s-1.9,0.8-1.9,2s1.9,2,1.9,2s13.2,6.8,16.2,8.3c0.5,0.2,1,0.4,1.5,0.4c1.3,0,1.1-1.6,1.1-1.6v-18.2     C294.5,552.8,294.7,551.2,293.4,551.2z"
   id="path844" />
		</g>
		<g
   class="st21"
   id="g850">
			<path
   d="M327.9,508.4c0.4,0,1.1,0.9,1.3,1.5l0,0c0.1,0.1,6.9,13.2,8.3,16.2c0.5,1.1,0.4,1.4,0.3,1.5c-0.2,0.1-0.4,0.2-0.6,0.2     h-18.4c-0.2,0-0.4-0.1-0.6-0.2c0-0.1-0.2-0.4,0.3-1.5c1.4-3,8.2-16.1,8.3-16.2l0,0C326.8,509.3,327.4,508.4,327.9,508.4      M327.9,507.7c-1.2,0-2,1.9-2,1.9s-6.8,13.2-8.3,16.2c-1.2,2.5,0.3,2.7,0.9,2.7h18.6c0.6,0,2.1-0.2,0.9-2.7     c-1.5-3-8.3-16.2-8.3-16.2S329,507.7,327.9,507.7L327.9,507.7z"
   id="path848" />
		</g>
		<g
   class="st21"
   id="g854">
			<path
   d="M362.4,551.9c0.4,0.1,0.8,0.2,1.2,0.4c3,1.4,16.1,8.2,16.2,8.3l0,0c0.6,0.3,1.5,0.9,1.5,1.3s-0.9,1.1-1.5,1.3l0,0     c-0.1,0.1-13.2,6.9-16.2,8.3c-0.4,0.2-0.8,0.3-1.2,0.4c-0.1,0-0.2,0-0.3-0.1c-0.1-0.2-0.2-0.5-0.1-0.7l0,0v-18.2l0,0     c0-0.2,0-0.5,0.1-0.7C362.1,552.1,362.2,551.9,362.4,551.9L362.4,551.9 M362.4,551.2c-1.3,0-1.1,1.6-1.1,1.6V571     c0,0-0.2,1.6,1.1,1.6c0.5,0,1-0.2,1.5-0.4c3-1.5,16.2-8.3,16.2-8.3s1.9-0.8,1.9-2s-1.9-2-1.9-2s-13.2-6.8-16.2-8.3     C363.4,551.4,362.9,551.2,362.4,551.2L362.4,551.2z"
   id="path852" />
		</g>
		<g
   class="st21"
   id="g858">
			<path
   d="M318.5,596h18.4c0.2,0,0.4,0.1,0.6,0.2c0,0.1,0.2,0.4-0.3,1.5c-1.4,3-8.2,16.1-8.3,16.2l0,0c-0.3,0.6-0.9,1.5-1.3,1.5     s-1.1-0.9-1.3-1.5l0,0c-0.1-0.1-6.9-13.2-8.3-16.2c-0.5-1.1-0.4-1.4-0.3-1.5C317.9,596,318.2,596,318.5,596 M337.2,595.3h-18.6     c-0.6,0-2.1,0.2-0.9,2.7c1.5,3,8.3,16.2,8.3,16.2s0.8,1.9,2,1.9s2-1.9,2-1.9s6.8-13.2,8.3-16.2     C339.3,595.5,337.8,595.3,337.2,595.3L337.2,595.3z"
   id="path856" />
		</g>
		<circle
   class="st22"
   cx="327.9"
   cy="561.9"
   r="13"
   id="circle860" />
	</g>
	<g
   id="Start">
		
			<ellipse
   transform="matrix(0.4642 -0.8857 0.8857 0.4642 -47.8405 620.9695)"
   class="st23"
   cx="489.3"
   cy="350"
   id="ellipse864"
   ry="25.1"
   rx="25.1" />
		<circle
   class="st24"
   cx="489.3"
   cy="350"
   r="21.5"
   id="circle866" />
	</g>
	<g
   id="g1005">
		<g
   id="g961">
			<g
   class="st3"
   id="g913">
				<g
   id="g871">
					<path
   d="M442.1,298.3l-2.5,1c-0.4-1.1-1-1.7-1.9-1.7c-0.4,0-0.8,0.1-1,0.4c-0.3,0.2-0.4,0.6-0.4,0.9c0,0.4,0.2,0.7,0.5,0.9       c0.6,0.4,1.2,0.7,1.9,0.9c0.7,0.3,1.4,0.6,2.1,1c0.5,0.3,0.9,0.8,1.2,1.3c0.3,0.6,0.5,1.2,0.5,1.9c0.1,1.2-0.4,2.4-1.3,3.2       c-1,0.8-2.2,1.3-3.5,1.2c-2.4,0-4-1.3-4.7-3.8l2.6-0.8c0.3,1.4,1,2.1,2.2,2.1c0.5,0,0.9-0.1,1.3-0.4c0.4-0.2,0.6-0.7,0.5-1.1       c0-0.3-0.1-0.6-0.3-0.9c-0.4-0.4-0.9-0.7-1.5-0.8c-0.8-0.3-1.6-0.6-2.3-1c-0.5-0.3-1-0.8-1.3-1.3c-0.3-0.6-0.5-1.3-0.5-2       c0-1.2,0.4-2.3,1.2-3.1c1.7-1.7,4.5-1.6,6.1,0.1C441.5,296.9,441.9,297.6,442.1,298.3L442.1,298.3z"
   id="path869" />
				</g>
				<g
   id="g875">
					<path
   d="M443.2,295.3h8.4v2.6h-2.8v11.3h-3v-11.3h-2.7v-2.6H443.2z"
   id="path873" />
				</g>
				<g
   id="g879">
					<path
   d="M454.7,295.3h3l3.9,13.9h-3l-0.7-2.9h-3.8l-0.7,2.9h-2.7L454.7,295.3z M457.3,303.9l-1.4-5.7l-1.3,5.7H457.3z"
   id="path877" />
				</g>
				<g
   id="g883">
					<path
   d="M462.7,295.3h4.2c0.6,0,1.3,0,1.9,0.1c0.5,0.1,0.9,0.3,1.3,0.6c0.5,0.4,0.8,0.9,1.1,1.4c0.3,0.6,0.4,1.3,0.4,2       c0.1,1.5-0.6,2.9-1.9,3.7l2.5,6.1H469l-1.8-5.5h-1.5v5.5h-3V295.3z M465.7,297.6v3.9h1.3c1.2,0,1.7-0.7,1.7-2       c0-0.4-0.1-0.8-0.3-1.1c-0.1-0.2-0.4-0.5-0.6-0.6c-0.3-0.1-0.7-0.2-1-0.2L465.7,297.6z"
   id="path881" />
				</g>
				<g
   id="g887">
					<path
   d="M472.6,295.3h8.4v2.6h-2.8v11.3h-3v-11.3h-2.7v-2.6H472.6z"
   id="path885" />
				</g>
				<g
   id="g891">
					<path
   d="M489.7,295.7h1.8l-8,16.9h-1.8L489.7,295.7z"
   id="path889" />
				</g>
				<g
   id="g895">
					<path
   d="M495,295.3h3.9c0.9,0,1.8,0.1,2.7,0.3c0.7,0.3,1.3,0.8,1.6,1.4c0.5,0.8,0.7,1.8,0.7,2.7c0,0.9-0.2,1.7-0.5,2.5       c-0.3,0.6-0.9,1.1-1.5,1.4c-0.9,0.3-1.9,0.5-2.9,0.4h-1v5.1h-3L495,295.3L495,295.3z M498,297.6v4.1h0.9       c0.6,0.1,1.2-0.1,1.6-0.6c0.3-0.5,0.4-1,0.4-1.5s-0.1-0.9-0.3-1.3c-0.1-0.2-0.4-0.5-0.6-0.6c-0.3-0.1-0.7-0.1-1-0.1H498z"
   id="path893" />
				</g>
				<g
   id="g899">
					<path
   d="M507.4,295.3h3l3.9,13.9h-3l-0.7-2.9h-3.8l-0.7,2.9h-2.7L507.4,295.3z M510,303.9l-1.4-5.7l-1.3,5.7H510z"
   id="path897" />
				</g>
				<g
   id="g903">
					<path
   d="M515.2,295.3h3v7.9c0,0.8,0,1.5,0.1,2.3c0.1,0.4,0.3,0.7,0.6,1c0.4,0.2,0.8,0.3,1.2,0.3s0.9-0.1,1.2-0.4       c0.3-0.2,0.5-0.6,0.5-1c0.1-0.8,0.1-1.5,0.1-2.3v-7.9h2.5v7.8c0,1.2-0.1,2.3-0.3,3.5c-0.2,0.8-0.7,1.5-1.3,2       c-0.9,0.6-1.9,0.9-3,0.8c-1,0-1.9-0.2-2.8-0.6c-0.7-0.4-1.2-1-1.4-1.7c-0.3-1.3-0.4-2.6-0.4-3.9L515.2,295.3L515.2,295.3z"
   id="path901" />
				</g>
				<g
   id="g907">
					<path
   d="M535.2,298.3l-2.5,1c-0.4-1.1-1-1.7-1.9-1.7c-0.4,0-0.8,0.1-1,0.4c-0.3,0.2-0.4,0.6-0.4,0.9c0,0.4,0.2,0.7,0.5,0.9       c0.6,0.4,1.2,0.7,1.9,0.9c0.7,0.3,1.4,0.6,2.1,1c0.5,0.3,0.9,0.8,1.2,1.3c0.3,0.6,0.5,1.2,0.5,1.9c0.1,1.2-0.4,2.4-1.3,3.2       c-1,0.8-2.2,1.3-3.5,1.2c-2.4,0-4-1.3-4.7-3.8l2.6-0.8c0.3,1.4,1,2.1,2.2,2.1c0.5,0,0.9-0.1,1.3-0.4c0.4-0.2,0.6-0.7,0.5-1.1       c0-0.3-0.1-0.6-0.3-0.9c-0.4-0.4-0.9-0.7-1.5-0.8c-0.8-0.3-1.6-0.6-2.3-1c-0.5-0.3-1-0.8-1.3-1.3c-0.3-0.6-0.5-1.3-0.5-2       c0-1.2,0.4-2.3,1.2-3.1c0.8-0.8,1.9-1.3,3.1-1.2C533.1,295,534.8,296.4,535.2,298.3z"
   id="path905" />
				</g>
				<g
   id="g911">
					<path
   d="M537.3,295.3h8.2v2.4h-5.2v3.2h4.1v2.4h-4.1v3.4h5.2v2.5h-8.2V295.3z"
   id="path909" />
				</g>
			</g>
			<g
   class="st4"
   id="g959">
				<g
   id="g917">
					<path
   d="M438,309.8c-0.1,0-0.2,0-0.4,0c0,0,0,0,0,0c-2.6,0-4.4-1.4-5.1-4.2l-0.1-0.5l3.6-1.1l0.1,0.5c0.3,1.5,1,1.7,1.7,1.7       c0.4,0,0.7-0.1,1-0.3c0.3-0.1,0.4-0.4,0.3-0.6l0-0.1c0-0.2-0.1-0.4-0.2-0.6c-0.3-0.3-0.7-0.5-1.2-0.6l-0.1,0       c-0.8-0.3-1.6-0.6-2.4-1c-0.6-0.3-1.1-0.9-1.5-1.5c-0.4-0.8-0.6-1.5-0.6-2.3c0-1.4,0.5-2.6,1.3-3.5c0.9-0.9,2.1-1.4,3.4-1.4       c1.3,0,2.5,0.6,3.4,1.5c0.6,0.7,1,1.5,1.2,2.2l0.1,0.4l-3.4,1.4l-0.2-0.5c-0.4-1.2-1-1.4-1.4-1.4c-0.3,0-0.5,0.1-0.6,0.2       l-0.1,0.1c-0.1,0.1-0.2,0.3-0.2,0.5c0,0.2,0.1,0.4,0.3,0.5c0.6,0.4,1.2,0.7,1.8,0.8c0.8,0.3,1.5,0.6,2.2,1       c0.5,0.3,1,0.8,1.4,1.5c0.4,0.8,0.6,1.5,0.6,2.2c0.1,1.3-0.4,2.7-1.5,3.6C440.4,309.4,439.2,309.8,438,309.8z M433.6,305.8       c0.7,2,2.1,3,4.1,3c1.4,0.1,2.5-0.5,3.2-1.1c0.8-0.7,1.2-1.7,1.1-2.8c0-0.6-0.1-1.1-0.4-1.7c-0.3-0.5-0.7-0.9-1-1.1       c-0.7-0.4-1.3-0.7-2-1c-0.7-0.2-1.3-0.5-2-0.9c-0.5-0.3-0.7-0.8-0.7-1.3c0-0.5,0.2-1,0.5-1.3c0.3-0.4,0.7-0.5,1.4-0.5       c0.9,0,1.7,0.5,2.2,1.6l1.6-0.6c-0.2-0.5-0.5-1-0.9-1.4c-0.7-0.7-1.6-1.1-2.7-1.1c-1,0-2,0.4-2.7,1.1c-0.7,0.7-1.1,1.6-1.1,2.7       c0,0.7,0.2,1.4,0.4,1.8c0.2,0.4,0.7,0.8,1.1,1.1c0.7,0.4,1.4,0.7,2.2,1c0.6,0.1,1.2,0.4,1.7,0.9c0.3,0.4,0.4,0.8,0.4,1.2       c0.1,0.6-0.2,1.3-0.8,1.6c-0.4,0.3-0.9,0.5-1.5,0.5c-1.3,0-2.1-0.7-2.5-2L433.6,305.8z"
   id="path915" />
				</g>
				<g
   id="g921">
					<path
   d="M449.3,309.7h-4v-11.3h-2.7v-3.6h9.5v3.6h-2.8V309.7z M446.3,308.7h2v-11.3h2.8v-1.6h-7.5v1.6h2.7V308.7z"
   id="path919" />
				</g>
				<g
   id="g925">
					<path
   d="M462.3,309.7h-4.1l-0.7-2.9h-3l-0.7,2.9H450l4.3-14.9h3.8L462.3,309.7z M459,308.7h1.9l-3.6-12.9h-2.2l-3.7,12.9h1.6       l0.7-2.9h4.6L459,308.7z M457.9,304.4h-4l1.9-8.4L457.9,304.4z M455.2,303.4h1.4l-0.7-3L455.2,303.4z"
   id="path923" />
				</g>
				<g
   id="g929">
					<path
   d="M472.9,309.7h-4.3l-1.8-5.5h-0.6v5.5h-4v-14.9h4.7c0.6,0,1.3,0,2,0.1c0.6,0.1,1,0.3,1.5,0.7c0.6,0.5,0.9,1,1.2,1.5       c0.3,0.6,0.5,1.4,0.5,2.3c0.1,1.5-0.6,3-1.8,3.9L472.9,309.7z M469.4,308.7h2.1l-2.4-5.8l0.4-0.2c1.1-0.7,1.8-1.9,1.7-3.2       c0-0.8-0.1-1.3-0.3-1.8c-0.3-0.4-0.5-0.9-1-1.2c-0.4-0.3-0.7-0.4-1.1-0.5c-0.5-0.1-1.2-0.1-1.8-0.1h-3.7v12.9h2v-5.5h2.4       L469.4,308.7z M467,302h-1.8v-4.9h1.6c0.4,0,0.9,0.1,1.2,0.2c0.4,0.2,0.7,0.6,0.9,0.9c0.2,0.3,0.4,0.8,0.4,1.3       C469.2,301.6,468,302,467,302z M466.2,301h0.8c0.7,0,1.2-0.3,1.2-1.5c0-0.3-0.1-0.6-0.2-0.8c-0.1-0.2-0.3-0.4-0.4-0.4       c-0.3-0.1-0.6-0.1-0.8-0.1h-0.6V301z"
   id="path927" />
				</g>
				<g
   id="g933">
					<path
   d="M478.7,309.7h-4v-11.3H472v-3.6h9.5v3.6h-2.8V309.7z M475.7,308.7h2v-11.3h2.8v-1.6H473v1.6h2.7V308.7z"
   id="path931" />
				</g>
				<g
   id="g937">
					<path
   d="M483.8,313.1h-2.9l8.5-17.9h2.9L483.8,313.1z M482.5,312.1h0.7l7.5-15.9H490L482.5,312.1z"
   id="path935" />
				</g>
				<g
   id="g941">
					<path
   d="M498.5,309.6h-4v-14.8h4.4c0.9,0,1.9,0.1,2.8,0.3c0.9,0.4,1.6,1,1.9,1.7c0.5,0.8,0.8,1.8,0.8,2.9       c0,0.9-0.2,1.7-0.5,2.7c-0.3,0.7-1,1.3-1.7,1.7c-1.2,0.4-2.2,0.5-3.2,0.5l-0.5,0V309.6z M495.5,308.6h2v-5.1h1.5       c0.9,0.1,1.7,0,2.7-0.4c0.5-0.3,1-0.7,1.2-1.1c0.3-0.8,0.4-1.5,0.4-2.3c0-0.9-0.2-1.8-0.6-2.4c-0.3-0.5-0.8-0.9-1.4-1.2       c-0.8-0.2-1.6-0.3-2.5-0.3h-3.4V308.6z M499.2,302.2c-0.1,0-0.2,0-0.4,0l-1.3,0v-5.1h1.5c0.3,0,0.8,0,1.2,0.1       c0.4,0.2,0.7,0.6,0.9,0.9c0.2,0.5,0.4,1,0.4,1.5c0,0.7-0.2,1.2-0.5,1.8C500.5,301.9,499.9,302.2,499.2,302.2z M498.5,301.2h0.4       c0.5,0.1,0.9-0.1,1.2-0.4c0.2-0.3,0.3-0.7,0.3-1.2c0-0.4-0.1-0.7-0.2-1.1c-0.1-0.1-0.3-0.3-0.4-0.4c-0.2,0-0.5,0-0.8,0h-0.5       V301.2z"
   id="path939" />
				</g>
				<g
   id="g945">
					<path
   d="M515,309.7h-4.1l-0.7-2.9h-3l-0.7,2.9h-3.8l4.3-14.9h3.8L515,309.7z M511.7,308.7h1.9l-3.6-12.9h-2.2l-3.7,12.9h1.6       l0.7-2.9h4.6L511.7,308.7z M510.6,304.4h-4l1.9-8.4L510.6,304.4z M507.9,303.4h1.4l-0.7-3L507.9,303.4z"
   id="path943" />
				</g>
				<g
   id="g949">
					<path
   d="M520.2,309.8c-0.2,0-0.3,0-0.5,0c0,0,0,0,0,0c-1,0-2-0.2-2.9-0.6c-0.9-0.5-1.4-1.2-1.7-2c-0.3-1.2-0.4-2.5-0.4-4v-8.3       h4v8.4c0,0.8,0,1.5,0.1,2.2c0.1,0.2,0.2,0.4,0.4,0.6c0.7,0.3,1.5,0.2,1.8,0c0.2-0.2,0.4-0.4,0.4-0.6c0.1-0.8,0.1-1.5,0.1-2.3       v-8.4h3.5v8.3c0,1.2-0.1,2.3-0.3,3.6c-0.2,0.9-0.7,1.7-1.5,2.3C522.2,309.5,521.2,309.8,520.2,309.8z M515.7,295.8v7.3       c0,1.4,0.1,2.7,0.4,3.8c0.2,0.5,0.6,1,1.2,1.4c0.8,0.4,1.6,0.5,2.6,0.5c1,0.1,1.9-0.2,2.7-0.7c0.5-0.4,0.9-1.1,1.1-1.7       c0.2-1.2,0.3-2.2,0.3-3.4v-7.3h-1.5v7.4c0,0.8,0,1.5-0.1,2.4c0,0.5-0.3,1.1-0.7,1.4c-0.4,0.4-1.2,0.5-1.5,0.5       c-0.5,0-1-0.1-1.4-0.4l-0.1-0.1c-0.4-0.4-0.6-0.8-0.7-1.2c-0.1-0.9-0.1-1.6-0.1-2.4v-7.4H515.7z"
   id="path947" />
				</g>
				<g
   id="g953">
					<path
   d="M531.1,309.8c-0.1,0-0.2,0-0.4,0c0,0,0,0,0,0c-2.6,0-4.4-1.4-5.1-4.2l-0.1-0.5l3.6-1.1l0.1,0.5c0.3,1.5,1,1.7,1.7,1.7       c0.4,0,0.7-0.1,1-0.3c0.3-0.1,0.4-0.4,0.3-0.6l0-0.1c0-0.2-0.1-0.4-0.2-0.6c-0.3-0.3-0.7-0.5-1.2-0.6c-0.9-0.3-1.7-0.6-2.5-1.1       c-0.6-0.3-1.1-0.9-1.5-1.5c-0.4-0.8-0.6-1.5-0.6-2.3c0-1.4,0.5-2.6,1.3-3.5c1-1,2.2-1.4,3.5-1.3c0,0,0,0,0,0       c2.2,0,4.1,1.6,4.5,3.7l0.1,0.4l-3.4,1.3l-0.2-0.5c-0.4-1.2-1-1.4-1.4-1.4c-0.3,0-0.5,0.1-0.6,0.2l-0.1,0.1       c-0.1,0.1-0.2,0.3-0.2,0.5c0,0.1,0,0.3,0.3,0.5c0.6,0.4,1.2,0.7,1.8,0.8c0.8,0.3,1.5,0.6,2.2,1c0.5,0.3,1,0.8,1.4,1.5       c0.4,0.8,0.6,1.5,0.6,2.2c0.1,1.3-0.4,2.7-1.5,3.6C533.5,309.4,532.3,309.8,531.1,309.8z M526.7,305.8c0.7,2,2.1,3,4.1,3       c1.4,0.1,2.5-0.5,3.2-1.1c0.8-0.7,1.2-1.7,1.1-2.8c0-0.6-0.1-1.1-0.4-1.7c-0.3-0.5-0.7-0.9-1-1.1c-0.7-0.4-1.3-0.7-2-1       c-0.6-0.2-1.3-0.5-2-0.9c-0.5-0.3-0.7-0.8-0.7-1.3c0-0.5,0.2-1,0.5-1.3c0.3-0.4,0.7-0.5,1.4-0.5c0.9,0,1.7,0.5,2.2,1.6l1.6-0.7       c-0.5-1.5-1.9-2.5-3.5-2.5c-1-0.1-2,0.3-2.7,1.1c-0.7,0.7-1.1,1.6-1.1,2.7c0,0.7,0.2,1.4,0.4,1.8c0.2,0.4,0.7,0.8,1.1,1.1       c0.7,0.4,1.4,0.7,2.2,1c0.6,0.1,1.2,0.4,1.7,0.9c0.3,0.4,0.4,0.8,0.4,1.2c0.1,0.6-0.2,1.3-0.8,1.6c-0.4,0.3-0.9,0.5-1.5,0.5       c-1.3,0-2.1-0.7-2.5-2L526.7,305.8z"
   id="path951" />
				</g>
				<g
   id="g957">
					<path
   d="M546,309.7h-9.2v-14.9h9.2v3.4h-5.2v2.2h4.1v3.4h-4.1v2.4h5.2V309.7z M537.8,308.7h7.2v-1.5h-5.2v-4.4h4.1v-1.4h-4.1       v-4.2h5.2v-1.4h-7.2V308.7z"
   id="path955" />
				</g>
			</g>
		</g>
		<g
   id="g1003">
			<g
   class="st25"
   id="g965">
				<path
   d="M442.1,298.3l-2.4,1c-0.3-1.1-1-1.7-1.9-1.7c-0.4,0-0.8,0.1-1,0.4c-0.3,0.3-0.4,0.6-0.4,0.9c0,0.4,0.1,0.7,0.4,0.9      c0.3,0.2,0.9,0.5,1.9,0.9c0.9,0.3,1.5,0.7,2,1s0.9,0.8,1.2,1.3c0.3,0.6,0.5,1.2,0.5,1.9c0,1.3-0.4,2.4-1.3,3.2      c-0.9,0.8-2,1.2-3.5,1.2c-2.4,0-4-1.3-4.7-3.8l2.6-0.8c0.3,1.4,1,2.1,2.2,2.1c0.5,0,0.9-0.1,1.2-0.4c0.3-0.3,0.5-0.6,0.5-1.1      c0-0.3-0.1-0.6-0.3-0.9c-0.2-0.3-0.7-0.6-1.5-0.8c-1-0.4-1.8-0.7-2.3-1s-0.9-0.7-1.3-1.3c-0.3-0.6-0.5-1.2-0.5-2      c0-1.2,0.4-2.3,1.2-3.1c0.8-0.8,1.8-1.2,3.1-1.2C440,295.1,441.5,296.2,442.1,298.3z"
   id="path963" />
			</g>
			<g
   class="st25"
   id="g969">
				<path
   d="M443.1,295.3h8.4v2.6h-2.8v11.3h-3v-11.3h-2.7V295.3z"
   id="path967" />
			</g>
			<g
   class="st25"
   id="g973">
				<path
   d="M454.6,295.3h3l3.8,13.9h-3l-0.7-2.9H454l-0.7,2.9h-2.7L454.6,295.3z M457.2,303.9l-1.4-5.7l-1.3,5.7H457.2z"
   id="path971" />
			</g>
			<g
   class="st25"
   id="g977">
				<path
   d="M462.6,295.3h4.2c0.8,0,1.5,0,1.9,0.1c0.4,0.1,0.9,0.3,1.3,0.6c0.4,0.3,0.8,0.8,1,1.4s0.4,1.3,0.4,2      c0,1.7-0.6,3-1.9,3.7l2.5,6.1h-3.2l-1.8-5.5h-1.5v5.5h-3V295.3z M465.5,297.6v3.9h1.3c1.2,0,1.7-0.7,1.7-2      c0-0.5-0.1-0.8-0.3-1.1c-0.2-0.3-0.4-0.5-0.6-0.6s-0.6-0.2-1-0.2H465.5z"
   id="path975" />
			</g>
			<g
   class="st25"
   id="g981">
				<path
   d="M472.4,295.3h8.4v2.6h-2.8v11.3h-3v-11.3h-2.7V295.3z"
   id="path979" />
			</g>
			<g
   class="st25"
   id="g985">
				<path
   d="M489.1,295.7h1.8l-8,16.9h-1.8L489.1,295.7z"
   id="path983" />
			</g>
			<g
   class="st25"
   id="g989">
				<path
   d="M494.5,295.3h3.9c1.2,0,2.1,0.1,2.7,0.3c0.6,0.2,1.2,0.7,1.6,1.4c0.4,0.7,0.7,1.6,0.7,2.7c0,1-0.2,1.9-0.5,2.5      c-0.4,0.7-0.8,1.1-1.5,1.4c-0.6,0.3-1.6,0.4-2.9,0.4h-1v5.1h-3V295.3z M497.4,297.6v4.1h0.9c0.8,0,1.3-0.2,1.6-0.6      c0.2-0.4,0.3-0.9,0.3-1.5c0-0.5-0.1-0.9-0.3-1.3c-0.2-0.3-0.4-0.5-0.6-0.6s-0.6-0.1-1-0.1H497.4z"
   id="path987" />
			</g>
			<g
   class="st25"
   id="g993">
				<path
   d="M506.8,295.3h3l3.8,13.9h-3l-0.7-2.9h-3.8l-0.7,2.9h-2.7L506.8,295.3z M509.4,303.9l-1.4-5.7l-1.3,5.7H509.4z"
   id="path991" />
			</g>
			<g
   class="st25"
   id="g1001">
				<path
   d="M514.5,295.3h3v7.9c0,1.1,0,1.9,0.1,2.3c0.1,0.4,0.3,0.8,0.6,1c0.3,0.2,0.7,0.3,1.1,0.3c0.5,0,0.9-0.1,1.2-0.4      c0.3-0.3,0.5-0.6,0.5-1s0.1-1.2,0.1-2.3v-7.9h2.5v7.8c0,1.6-0.1,2.7-0.3,3.5c-0.2,0.8-0.6,1.4-1.3,2c-0.7,0.5-1.7,0.8-2.9,0.8      c-1.2,0-2.1-0.2-2.8-0.6s-1.1-1-1.4-1.7c-0.3-0.7-0.4-2-0.4-3.9V295.3z"
   id="path995" />
				<path
   d="M534.5,298.3l-2.4,1c-0.3-1.1-1-1.7-1.9-1.7c-0.4,0-0.8,0.1-1,0.4c-0.3,0.3-0.4,0.6-0.4,0.9c0,0.4,0.1,0.7,0.4,0.9      c0.3,0.2,0.9,0.5,1.9,0.9c0.9,0.3,1.5,0.7,2,1s0.9,0.8,1.2,1.3c0.3,0.6,0.5,1.2,0.5,1.9c0,1.3-0.4,2.4-1.3,3.2      c-0.9,0.8-2,1.2-3.5,1.2c-2.4,0-4-1.3-4.7-3.8l2.6-0.8c0.3,1.4,1,2.1,2.2,2.1c0.5,0,0.9-0.1,1.2-0.4c0.3-0.3,0.5-0.6,0.5-1.1      c0-0.3-0.1-0.6-0.3-0.9c-0.2-0.3-0.7-0.6-1.5-0.8c-1-0.4-1.8-0.7-2.3-1s-0.9-0.7-1.3-1.3c-0.3-0.6-0.5-1.2-0.5-2      c0-1.2,0.4-2.3,1.2-3.1s1.8-1.2,3.1-1.2C532.4,295.1,533.9,296.2,534.5,298.3z"
   id="path997" />
				<path
   d="M536.5,295.3h8.2v2.4h-5.2v3.2h4.1v2.4h-4.1v3.4h5.2v2.5h-8.2V295.3z"
   id="path999" />
			</g>
		</g>
	</g>
	<g
   id="Triggers">
		<g
   id="g1011">
			<path
   class="st0"
   d="M231.8,90H102.7c-0.5,0-1-0.4-1-0.9V89V52c0-28.7,23.3-52,52-52h27.2c28.7,0,52,23.3,52,52v37     C232.9,89.6,232.4,90,231.8,90z"
   id="path1007" />
			<ellipse
   class="st26"
   cx="167.2"
   cy="89.3"
   rx="65.6"
   ry="5.3"
   id="ellipse1009" />
		</g>
		<g
   id="g1017">
			<path
   class="st0"
   d="M746.7,90h129.2c0.5,0,1-0.4,1-0.9V89V52c0-28.7-23.3-52-52-52h-27.2c-28.7,0-52,23.3-52,52v37     C745.7,89.5,746.1,90,746.7,90C746.6,90,746.7,90,746.7,90z"
   id="path1013" />
			<ellipse
   class="st26"
   cx="811.3"
   cy="89.3"
   rx="65.6"
   ry="5.3"
   id="ellipse1015" />
		</g>
	</g>
	<g
   id="Buttons">
		<g
   id="g1032">
			<circle
   class="st27"
   cx="788.2"
   cy="344.7"
   r="57"
   id="circle1020" />
			<g
   class="st2"
   id="g1030">
				<g
   class="st3"
   id="g1024">
					<path
   d="M785,327.3h6.5l6.9,30.9h-5.5l-1.2-6.5h-6.9l-1.2,6.5h-5.5L785,327.3z M785.7,346.6h5.1l-2.5-13.9h-0.1L785.7,346.6z"
   id="path1022" />
				</g>
				<g
   class="st4"
   id="g1028">
					<path
   class="st5"
   d="M785,327.3h6.5l6.9,30.9h-5.5l-1.2-6.5h-6.9l-1.2,6.5h-5.5L785,327.3z M785.7,346.6h5.1l-2.5-13.9h-0.1       L785.7,346.6z"
   id="path1026" />
				</g>
			</g>
		</g>
		<g
   id="g1046">
			<path
   class="st24"
   d="M786.7,259.2h0.3c0,0,26.5-2.8,22-29c-2.9-17-22.3-21.6-39.1-21.6c-9.2,0-17.6,1.4-22.2,2.9     c-13,4.3-46.8,24.4-39.8,45.2c5.2,15.5,17.6,17.5,23.5,17.5c1.1,0,2.1-0.1,3.2-0.2c14.5-4.6,16.3-8.9,26.8-11.9     C771.2,259.4,784.7,259.2,786.7,259.2z"
   id="path1034" />
			<g
   class="st2"
   id="g1044">
				<g
   class="st3"
   id="g1038">
					<path
   d="M754.3,224.4l3.4,11.6h0.1l3.6-11.6h5.7l-6.7,18.2v11.8h-5.3v-11.8l-6.7-18.2H754.3z"
   id="path1036" />
				</g>
				<g
   class="st4"
   id="g1042">
					<path
   class="st5"
   d="M754.3,224.4l3.4,11.6h0.1l3.6-11.6h5.7l-6.7,18.2v11.8h-5.3v-11.8l-6.7-18.2H754.3z"
   id="path1040" />
				</g>
			</g>
		</g>
		<g
   id="g1060">
			<path
   class="st24"
   d="M924.2,315.4c-2.9-12.4-18.2-43.9-37.5-43.9c-1.4,0-2.9,0.2-4.3,0.5c-21.3,5.3-19.4,25.2-19.4,25.2     c3.4,14.8,7.5,16.9,9.6,27.6s0.8,25.7,0.8,25.7s0.5,24.5,23.9,24.5c1,0,2.1,0,3.2-0.1C927,372.6,927.4,328.7,924.2,315.4z"
   id="path1048" />
			<g
   class="st2"
   id="g1058">
				<g
   class="st3"
   id="g1052">
					<path
   d="M889,306h5.8l3.4,9.7l3.3-9.7h5.7l-6.1,14.8l6.5,15.1h-5.9l-3.8-10.1l-3.7,10.1h-5.8l6.5-15.1L889,306z"
   id="path1050" />
				</g>
				<g
   class="st4"
   id="g1056">
					<path
   class="st5"
   d="M889,306h5.8l3.4,9.7l3.3-9.7h5.7l-6.1,14.8l6.5,15.1h-5.9l-3.8-10.1l-3.7,10.1h-5.8l6.5-15.1L889,306z"
   id="path1054" />
				</g>
			</g>
		</g>
		<g
   id="g1074">
			<circle
   class="st28"
   cx="676.5"
   cy="401.7"
   r="35.5"
   id="circle1062" />
			<g
   class="st2"
   id="g1072">
				<g
   class="st3"
   id="g1066">
					<path
   d="M668.8,384h8.8c4.3,0,7.4,1.9,7.4,8c0,3.4-1.3,6-3.9,6.9v0.1c2.9,0.5,4.7,3.1,4.7,7.4c0,5-2,9.3-8.1,9.3h-8.9V384z        M674.1,397h1.5c2.9,0,4.2-1.2,4.2-4.2s-1.2-4.1-3.8-4.1h-1.9V397z M674.1,411h2c2.5,0,4.2-1.1,4.2-4.8s-1.7-4.7-4-4.7H674       L674.1,411L674.1,411z"
   id="path1064" />
				</g>
				<g
   class="st4"
   id="g1070">
					<path
   class="st5"
   d="M668.8,384h8.8c4.3,0,7.4,1.9,7.4,8c0,3.4-1.3,6-3.9,6.9v0.1c2.9,0.5,4.7,3.1,4.7,7.4c0,5-2,9.3-8.1,9.3       h-8.9V384z M674.1,397h1.5c2.9,0,4.2-1.2,4.2-4.2s-1.2-4.1-3.8-4.1h-1.9V397z M674.1,411h2c2.5,0,4.2-1.1,4.2-4.8       s-1.7-4.7-4-4.7H674L674.1,411L674.1,411z"
   id="path1068" />
				</g>
			</g>
		</g>
		<path
   id="Z_Button"
   class="st1"
   d="M832.2,179.9c5.8,1.9,11.6,4.2,17.5,6.8c11.3,4.5,22.2,10,32.5,16.4c3.1,2.2,6,4.4,8.8,6.6    c0.6-0.8,1.3-2,2.4-3.6c4.6-9-27.8-37.3-74-54.6s-76.9-12.7-79.2-12.1c-1.5,0.5-2.8,1.5-3.8,2.8    C788.9,159.3,824.2,176,832.2,179.9z" />
	</g>
</g>
<path
   style="fill:#11111b;stroke:#11111b;stroke-width:0.09070866;fill-opacity:1;stroke-dasharray:none;stroke-opacity:1"
   d="m 494.55414,302.19226 v -6.84739 h 2.3831 c 3.56681,0 4.2524,0.1266 5.12978,0.94729 0.88195,0.82496 1.33348,2.17658 1.25903,3.76879 -0.0948,2.0274 -0.86805,3.19938 -2.42333,3.67294 -0.33516,0.10205 -0.98236,0.16836 -1.97259,0.2021 l -1.47378,0.0502 v 2.52673 2.52673 h -1.4511 -1.45111 z m 4.87834,-0.68288 c 0.31193,-0.13764 0.42651,-0.25646 0.57839,-0.59983 0.25292,-0.57177 0.27843,-1.71855 0.0513,-2.30695 -0.31819,-0.82436 -0.79045,-1.0629 -2.1297,-1.07567 l -0.56683,-0.005 v 2.07085 c 0,1.13896 0.0306,2.10237 0.068,2.14091 0.1177,0.12124 1.59049,-0.0437 1.9988,-0.2239 z"
   id="path2747" /><path
   style="fill:#11111b;stroke:#11111b;stroke-width:0.0105159"
   d="m 502.83465,308.92833 c 0.0354,-0.11372 0.82434,-2.7891 1.75321,-5.9453 0.92886,-3.15619 1.81906,-6.17046 1.97823,-6.69838 l 0.28938,-0.95985 1.4605,0.0324 1.4605,0.0324 1.83632,6.72394 c 1.00997,3.69817 1.8374,6.79076 1.83873,6.87242 0.002,0.11447 -0.32245,0.14102 -1.41587,0.11593 l -1.41828,-0.0325 -0.33775,-1.42014 -0.33775,-1.42015 h -1.94434 -1.94434 l -0.33161,1.42015 -0.33162,1.42014 -1.30983,0.0329 c -1.21172,0.0304 -1.30502,0.0174 -1.24548,-0.17389 z m 6.56274,-5.1048 c 0.003,-0.24855 -1.33453,-5.59363 -1.39959,-5.59363 -0.0421,0 -0.13296,0.27389 -0.20197,0.60864 -0.069,0.33475 -0.35625,1.61287 -0.63831,2.84028 l -0.51284,2.23165 h 1.37585 c 0.75672,0 1.37631,-0.0391 1.37686,-0.0869 z"
   id="path1066" /><path
   style="fill:#11111b;stroke:#11111b;stroke-width:0.0105159"
   d="m 517.63267,309.12365 c -0.78926,-0.16546 -1.70055,-0.65945 -2.09198,-1.13401 -0.87282,-1.05817 -1.03112,-2.426 -1.03897,-8.97721 l -0.004,-3.68077 h 1.43497 1.43498 l 0.0502,5.01397 c 0.0483,4.82206 0.0598,5.0352 0.29918,5.56855 0.29734,0.66238 0.73852,0.89454 1.69989,0.89454 0.54659,0 0.69524,-0.0509 1.04428,-0.35732 0.2283,-0.20045 0.45882,-0.54401 0.52507,-0.78253 0.0718,-0.25834 0.11836,-2.39278 0.11875,-5.43917 l 6.4e-4,-5.01397 h 1.21727 1.21726 l -0.002,4.72414 c -0.003,6.31307 -0.10941,6.99964 -1.26252,8.15153 -0.43244,0.43198 -0.84087,0.716 -1.22768,0.85368 -0.67565,0.24051 -2.6314,0.34278 -3.41468,0.17857 z"
   id="path1069" /><path
   style="fill:#11111b;stroke:#11111b;stroke-width:0.0105159"
   d="m 528.61479,309.07177 c -1.18766,-0.32692 -2.30005,-1.28107 -2.82156,-2.42021 -0.49477,-1.08072 -0.48819,-1.09449 0.70283,-1.47048 1.3207,-0.41693 1.40504,-0.41831 1.4842,-0.0244 0.0911,0.45354 0.54238,1.08055 0.99921,1.3884 0.49925,0.33645 1.65664,0.37189 2.09901,0.0643 0.74918,-0.52094 0.94004,-1.15047 0.58922,-1.94355 -0.25527,-0.57709 -0.35269,-0.63512 -2.42062,-1.44212 -1.95065,-0.76122 -2.73332,-1.45881 -3.11682,-2.778 -0.26548,-0.91322 -0.15935,-2.25927 0.24297,-3.08158 0.67231,-1.37416 1.89961,-2.16799 3.47142,-2.24535 1.52228,-0.0749 2.81991,0.42336 3.69776,1.41991 0.22867,0.2596 0.95029,1.68206 0.87947,1.73363 -0.0234,0.0171 -0.52122,0.22866 -1.10621,0.47023 -1.04109,0.42991 -1.31294,0.45444 -1.31294,0.11843 0,-0.3006 -0.82116,-1.08841 -1.27677,-1.22492 -0.99546,-0.29824 -1.96927,0.34703 -1.96927,1.30488 0,0.62371 0.41032,1.00634 1.59527,1.48763 2.5603,1.03992 3.47677,1.70453 4.03397,2.92535 0.63807,1.39804 0.36725,3.26354 -0.63989,4.40771 -1.08017,1.22714 -3.33822,1.80367 -5.13125,1.31011 z"
   id="path1071" /><path
   style="fill:#11111b;stroke:#11111b;stroke-width:0.0105159"
   d="m 536.524,302.22949 v -6.89783 h 4.05755 4.05755 v 1.15929 1.1593 h -2.60842 -2.60843 v 1.62302 1.62302 h 2.08674 2.08674 v 1.1593 1.1593 h -2.08976 -2.08976 l 0.032,1.75573 0.032,1.75573 2.57944,-0.0242 2.57944,-0.0242 v 1.22473 1.22472 h -4.05755 -4.05755 z"
   id="path1073" /><path
   style="fill:#11111b;stroke:#11111b;stroke-width:0.0105159"
   d="m 475.08111,303.50472 v -5.62261 h -1.39116 -1.39116 v -1.27523 -1.27522 h 4.23144 4.23145 v 1.27522 1.27523 h -1.39116 -1.39116 v 5.62261 5.6226 h -1.44913 -1.44912 z"
   id="path1075" /><path
   style="fill:#11111b;stroke:#11111b;stroke-width:0.0105159"
   d="m 462.56067,302.22949 v -6.89783 h 2.81924 c 2.25527,0 2.94511,0.0374 3.44841,0.18684 1.18169,0.35092 1.88114,1.07555 2.27191,2.3537 0.23941,0.78306 0.26754,2.42663 0.0528,3.08206 -0.20909,0.63803 -0.76819,1.44945 -1.23814,1.79691 -0.2156,0.15941 -0.39344,0.34297 -0.39519,0.40792 -0.002,0.065 0.51849,1.38908 1.15611,2.94251 0.63761,1.55342 1.1593,2.86971 1.1593,2.92507 0,0.0554 -0.67635,0.10065 -1.50299,0.10065 h -1.50299 l -0.88866,-2.72435 -0.88866,-2.72436 h -0.79643 -0.79642 v 2.72436 2.72435 h -1.44913 -1.44912 z m 5.197,-0.91475 c 0.49116,-0.25708 0.74719,-0.84576 0.76182,-1.75164 0.008,-0.50222 -0.0532,-0.805 -0.22046,-1.08922 -0.40524,-0.6885 -0.74947,-0.8589 -1.85204,-0.91677 l -0.98807,-0.0519 v 2.05785 2.05785 l 0.95642,-0.0521 c 0.59339,-0.0323 1.1029,-0.12878 1.34233,-0.25409 z"
   id="path1077" /><path
   style="fill:#11111b;stroke:#11111b;stroke-width:0.0105159"
   d="m 450.7416,308.98241 c 0.003,-0.0797 0.87917,-3.17068 1.94663,-6.86885 l 1.94084,-6.72394 1.46442,-0.0324 c 1.32013,-0.0292 1.47037,-0.0121 1.52495,0.1739 0.20233,0.68936 3.667,13.46947 3.667,13.52645 0,0.0383 -0.64116,0.0697 -1.4248,0.0697 h -1.42479 l -0.34768,-1.42014 -0.34768,-1.42014 h -1.89435 -1.89436 l -0.34322,1.42014 -0.34323,1.42014 h -1.26476 c -0.93761,0 -1.26326,-0.0375 -1.25897,-0.14491 z m 6.48629,-5.11476 c 0,-0.0773 -1.28002,-5.34392 -1.33903,-5.50943 -0.0317,-0.0888 -0.0805,-0.13861 -0.10846,-0.11063 -0.028,0.028 -0.31705,1.22227 -0.64239,2.654 -0.32534,1.43172 -0.61774,2.69442 -0.64979,2.80601 -0.0532,0.18522 0.0634,0.20287 1.3407,0.20287 0.76943,0 1.39897,-0.0193 1.39897,-0.0428 z"
   id="path1079" /><path
   style="fill:#11111b;stroke:#11111b;stroke-width:0.0105159"
   d="m 436.21859,309.07177 c -1.24584,-0.34293 -2.30731,-1.28827 -2.89033,-2.57411 -0.18802,-0.41466 -0.32367,-0.80846 -0.30146,-0.87512 0.0403,-0.12097 1.94792,-0.76467 2.30481,-0.77773 0.11537,-0.004 0.21322,0.11668 0.25245,0.31191 0.0911,0.45354 0.54238,1.08055 0.99921,1.3884 0.29796,0.2008 0.55545,0.2636 1.08069,0.2636 0.86677,0 1.28863,-0.23706 1.61253,-0.90614 0.21624,-0.44668 0.2284,-0.55983 0.10457,-0.97312 -0.18136,-0.60534 -0.51743,-0.93142 -1.2286,-1.19211 -2.17312,-0.79659 -2.90303,-1.16088 -3.48411,-1.73888 -0.83547,-0.83105 -1.1279,-1.64214 -1.06613,-2.95706 0.0558,-1.1881 0.39128,-2.00998 1.1285,-2.76477 1.07037,-1.09587 2.83245,-1.46795 4.5218,-0.95483 1.06386,0.32314 2.02563,1.17913 2.49169,2.21765 0.17479,0.38948 0.30004,0.72069 0.27834,0.73602 -0.0217,0.0153 -0.51809,0.22553 -1.10309,0.4671 -1.04108,0.42991 -1.31293,0.45444 -1.31293,0.11843 0,-0.3006 -0.82116,-1.08841 -1.27678,-1.22492 -0.99545,-0.29824 -1.96926,0.34703 -1.96926,1.30488 0,0.62061 0.3875,0.98338 1.5856,1.48439 2.64176,1.10472 3.4962,1.72409 4.04007,2.92859 0.43129,0.95517 0.45137,2.2238 0.0518,3.27403 -0.45787,1.20357 -1.68137,2.18312 -3.10376,2.48492 -0.79423,0.16852 -2.02153,0.14993 -2.71564,-0.0411 z"
   id="path1081" /><path
   style="fill:#11111b;stroke:#11111b;stroke-width:0.0105159"
   d="m 445.75082,303.50472 v -5.62261 h -1.3332 -1.33319 v -1.27523 -1.27522 h 4.17348 4.17348 v 1.27522 1.27523 h -1.39116 -1.39116 v 5.62261 5.6226 h -1.44913 -1.44912 z"
   id="path1083" /><path
   style="fill:#11111b;stroke:#11111b;stroke-width:0.0105159"
   d="m 481.39809,312.11252 c 0.0885,-0.20722 1.85523,-3.95031 3.92613,-8.31798 l 3.76527,-7.9412 0.83555,-0.0344 c 0.76331,-0.0314 0.82871,-0.0163 0.75643,0.17389 -0.0435,0.11454 -1.81072,3.87245 -3.92711,8.35091 l -3.84798,8.14267 -0.83457,0.001 -0.83458,10e-4 z"
   id="path1085" /></svg>
