<svg id="Layer_1" data-name="Layer 1" xmlns="http://www.w3.org/2000/svg" width="515.44" height="114.02" viewBox="0 0 515.44 114.02">
  <defs>
    <style>
      .cls-1 {
        fill: #f38ba8;
      }

      .cls-2 {
        opacity: 0.83;
      }

      .cls-3 {
        opacity: 0.11;
      }

      .cls-4 {
        fill: #fff;
      }

      .cls-5 {
        opacity: 0.07;
      }

      .cls-6 {
        fill: none;
        stroke: #fff;
        stroke-miterlimit: 10;
      }

      .cls-7 {
        fill: #181825;
      }

      .cls-8 {
        fill: #94e2d5;
      }

      .cls-9 {
        fill: #f9e2af;
      }
    </style>
  </defs>
  <g>
    <circle class="cls-1" cx="57" cy="57.02" r="57"/>
    <g class="cls-2">
      <g class="cls-3">
        <path class="cls-4" d="M53.8,39.7h6.5l6.9,30.9H61.7L60.5,64H53.6l-1.2,6.5H46.9Zm.7,19.2h5.1L57.1,45H57Z" transform="translate(0 0.02)"/>
      </g>
      <g class="cls-5">
        <path class="cls-6" d="M53.8,39.7h6.5l6.9,30.9H61.7L60.5,64H53.6l-1.2,6.5H46.9Zm.7,19.2h5.1L57.1,45H57Z" transform="translate(0 0.02)"/>
      </g>
    </g>
  </g>
  <g>
    <path class="cls-7" d="M268.7,50.6h.3s26.5-2.8,22-29C288,4.6,268.7,0,251.9,0c-9.2,0-17.6,1.4-22.2,2.9-13,4.3-46.8,24.4-39.8,45.2,5.2,15.5,17.6,17.5,23.5,17.5a21.51,21.51,0,0,0,3.2-.2c14.5-4.6,16.3-8.9,26.8-11.9C253.1,50.7,266.7,50.6,268.7,50.6Z" transform="translate(0 0.02)"/>
    <g class="cls-2">
      <g class="cls-3">
        <path class="cls-4" d="M236.3,15.8l3.4,11.6h.1l3.6-11.6h5.7L242.4,34V45.8h-5.3V34l-6.7-18.2Z" transform="translate(0 0.02)"/>
      </g>
      <g class="cls-5">
        <path class="cls-6" d="M236.3,15.8l3.4,11.6h.1l3.6-11.6h5.7L242.4,34V45.8h-5.3V34l-6.7-18.2Z" transform="translate(0 0.02)"/>
      </g>
    </g>
  </g>
  <g>
    <path class="cls-7" d="M354.7,43.9C351.8,31.5,336.5,0,317.2,0a21,21,0,0,0-4.3.5c-21.3,5.3-19.4,25.2-19.4,25.2,3.4,14.8,7.5,16.9,9.6,27.6s.8,25.7.8,25.7.5,24.5,23.9,24.5c1,0,2.1,0,3.2-.1C357.5,101.1,357.9,57.2,354.7,43.9Z" transform="translate(0 0.02)"/>
    <g class="cls-2">
      <g class="cls-3">
        <path class="cls-4" d="M319.5,34.4h5.8l3.4,9.7,3.3-9.7h5.7l-6.1,14.8,6.5,15.1h-5.9l-3.8-10.1-3.7,10.1H319l6.5-15.1Z" transform="translate(0 0.02)"/>
      </g>
      <g class="cls-5">
        <path class="cls-6" d="M319.5,34.4h5.8l3.4,9.7,3.3-9.7h5.7l-6.1,14.8,6.5,15.1h-5.9l-3.8-10.1-3.7,10.1H319l6.5-15.1Z" transform="translate(0 0.02)"/>
      </g>
    </g>
  </g>
  <g>
    <circle class="cls-8" cx="151.5" cy="35.52" r="35.5"/>
    <g class="cls-2">
      <g class="cls-3">
        <path class="cls-4" d="M143.8,17.9h8.8c4.3,0,7.4,1.9,7.4,8,0,3.4-1.3,6-3.9,6.9v.1c2.9.5,4.7,3.1,4.7,7.4,0,5-2,9.3-8.1,9.3h-8.9Zm5.3,12.9h1.5c2.9,0,4.2-1.2,4.2-4.2s-1.2-4.1-3.8-4.1h-1.9Zm0,14h2c2.5,0,4.2-1.1,4.2-4.8s-1.7-4.7-4-4.7H149v9.5Z" transform="translate(0 0.02)"/>
      </g>
      <g class="cls-5">
        <path class="cls-6" d="M143.8,17.9h8.8c4.3,0,7.4,1.9,7.4,8,0,3.4-1.3,6-3.9,6.9v.1c2.9.5,4.7,3.1,4.7,7.4,0,5-2,9.3-8.1,9.3h-8.9Zm5.3,12.9h1.5c2.9,0,4.2-1.2,4.2-4.2s-1.2-4.1-3.8-4.1h-1.9Zm0,14h2c2.5,0,4.2-1.1,4.2-4.8s-1.7-4.7-4-4.7H149v9.5Z" transform="translate(0 0.02)"/>
      </g>
    </g>
  </g>
  <path id="Z_Button" data-name="Z Button" class="cls-9" d="M453.8,41.5c5.8,1.9,11.6,4.2,17.5,6.8a206.52,206.52,0,0,1,32.5,16.4c3.1,2.2,6,4.4,8.8,6.6.6-.8,1.3-2,2.4-3.6,4.6-9-27.7-37.2-74-54.6S364.1.4,361.9,1a8.07,8.07,0,0,0-3.8,2.8C410.4,20.9,445.7,37.6,453.8,41.5Z" transform="translate(0 0.02)"/>
</svg>
