<svg id="Layer_1" data-name="Layer 1" xmlns="http://www.w3.org/2000/svg" width="84" height="84" viewBox="0 0 84 84">
  <defs>
    <style>
      .cls-1 {
        fill: #f9e2af;
      }

      .cls-2 {
        opacity: 0.45;
      }

      .cls-3 {
        opacity: 0.83;
      }

      .cls-4, .cls-5 {
        isolation: isolate;
      }

      .cls-4 {
        opacity: 0.11;
      }

      .cls-5 {
        fill: none;
        stroke: #000;
        stroke-miterlimit: 10;
        opacity: 0.07;
      }
    </style>
  </defs>
  <g id="C_Stick" data-name="C Stick">
    <g>
      <circle class="cls-1" cx="42" cy="42" r="41.5"/>
      <g class="cls-2">
        <path d="M42,.5A41.5,41.5,0,1,1,.5,42,41.53,41.53,0,0,1,42,.5M42,0A42,42,0,1,0,84,42,42,42,0,0,0,42,0Z"/>
      </g>
    </g>
    <g class="cls-3">
      <path class="cls-4" d="M48.3,31.2V25.4a16.5,16.5,0,1,0,0,33V52.6A10.82,10.82,0,0,1,37.5,41.8,10.59,10.59,0,0,1,48.3,31.2Z"/>
      <path class="cls-5" d="M48.3,31.2V25.4a16.5,16.5,0,1,0,0,33V52.6A10.82,10.82,0,0,1,37.5,41.8,10.59,10.59,0,0,1,48.3,31.2Z"/>
    </g>
  </g>
</svg>
