<svg id="Layer_1" data-name="Layer 1" xmlns="http://www.w3.org/2000/svg" width="121" height="121" viewBox="0 0 121 121">
  <defs>
    <style>
      .cls-1 {
        fill: #f5e0dc;
      }

      .cls-2 {
        opacity: 0.37;
      }

      .cls-3 {
        opacity: 0.27;
      }
    </style>
  </defs>
  <g id="Left_Stick" data-name="Left Stick">
    <circle class="cls-1" cx="60.5" cy="60.5" r="60"/>
    <g class="cls-2">
      <path d="M60.5.5a60,60,0,1,1-60,60,60,60,0,0,1,60-60m0-.5A60.5,60.5,0,1,0,121,60.5,60.52,60.52,0,0,0,60.5,0Z"/>
    </g>
    <g class="cls-3">
      <path d="M60.5,42.7A17.8,17.8,0,1,1,42.7,60.5,17.84,17.84,0,0,1,60.5,42.7m0,30.2A12.4,12.4,0,1,0,48.1,60.5,12.4,12.4,0,0,0,60.5,72.9m0-30.7A18.3,18.3,0,1,0,78.8,60.5,18.31,18.31,0,0,0,60.5,42.2Zm0,30.2A11.9,11.9,0,1,1,72.4,60.5,11.93,11.93,0,0,1,60.5,72.4Z"/>
      <path d="M60.5,27.8A32.7,32.7,0,1,1,27.8,60.5,32.71,32.71,0,0,1,60.5,27.8m0,60.3A27.6,27.6,0,1,0,32.9,60.5,27.59,27.59,0,0,0,60.5,88.1m0-60.8A33.2,33.2,0,1,0,93.7,60.5,33.25,33.25,0,0,0,60.5,27.3Zm0,60.3A27.1,27.1,0,1,1,87.6,60.5,27.12,27.12,0,0,1,60.5,87.6Z"/>
      <path d="M60.5,11.4A49.1,49.1,0,1,1,11.4,60.5,49.12,49.12,0,0,1,60.5,11.4m0,92.8A43.7,43.7,0,1,0,16.8,60.5a43.74,43.74,0,0,0,43.7,43.7m0-93.3a49.6,49.6,0,1,0,49.6,49.6A49.66,49.66,0,0,0,60.5,10.9Zm0,92.8a43.2,43.2,0,1,1,43.2-43.2,43.28,43.28,0,0,1-43.2,43.2Z"/>
    </g>
    <g>
      <path class="cls-1" d="M60.5,42.7A17.8,17.8,0,1,0,78.3,60.5,17.84,17.84,0,0,0,60.5,42.7Zm0,30.2A12.4,12.4,0,1,1,72.9,60.5,12.4,12.4,0,0,1,60.5,72.9Z"/>
      <path class="cls-1" d="M60.5,27.8A32.7,32.7,0,1,0,93.2,60.5,32.71,32.71,0,0,0,60.5,27.8Zm0,60.3A27.6,27.6,0,1,1,88.1,60.5,27.59,27.59,0,0,1,60.5,88.1Z"/>
      <path class="cls-1" d="M60.5,11.4a49.1,49.1,0,1,0,49.1,49.1A49.12,49.12,0,0,0,60.5,11.4Zm0,92.8a43.7,43.7,0,1,1,43.7-43.7A43.74,43.74,0,0,1,60.5,104.2Z"/>
    </g>
  </g>
</svg>
